<?xml version="1.0" standalone="no"?><!DOCTYPE svg PUBLIC "-//W3C//DTD SVG 1.1//EN" "http://www.w3.org/Graphics/SVG/1.1/DTD/svg11.dtd"><svg t="1496229510039" class="icon" style="" viewBox="0 0 1024 1024" version="1.1" xmlns="http://www.w3.org/2000/svg" p-id="4939" xmlns:xlink="http://www.w3.org/1999/xlink" width="48" height="48"><defs><style type="text/css"></style></defs><path d="M623.733269 251.698532c28.980032-1.283226 59.884902 6.53074 87.398536 5.5279 43.593867-1.540076 97.41568-10.05296 138.679479 0 21.178345 5.177929 47.127344 26.123984 58.241472 42.98807 35.628452 54.090942 27.127847 146.738016 23.570835 224.666876-1.493004 32.701796 0.068562 66.685795 0 98.477872-0.069585 34.286897-1.039679 66.638723-1.400906 95.67913-0.220011 20.222577 5.085832 39.629579-4.139274 55.491849 5.317099 30.0412-3.592828 60.597123-5.551436 87.375-4.105504 6.973832-7.697309 14.484899-12.479219 20.804838-7.450692-1.350764-11.521404 6.15928-18.029632 1.399883-4.956895 10.287297-14.263865 16.257266-29.108968 16.607236 1.515516 15.488763 6.018064 28.573779 0 41.590234-31.350009 17.58654-69.018933 14.508435-105.417935 15.277962-34.755572 0.77055-69.239967 3.685949-104.018052 1.39886-17.448394-1.189082-41.355897-6.857175-62.405305-5.573949-115.365494 7.277754-266.057565-0.629333-378.600781-6.904247-23.103184-1.305739-44.457538-8.722662-61.017702-18.008142-6.204305-16.279778-4.956895-34.637892-6.951319-52.713572-17.785062-6.274914-30.718629-17.35425-41.599444-30.556946-5.994528-29.341259-6.764054-63.49001-8.326643-98.454336-2.134617-48.866964-5.306866-101.370759-2.76395-149.793608 1.423419-26.869974 5.901407-53.92619 8.337899-80.401168 2.133593-23.254633 1.177825-46.533826 4.116761-69.367881 5.435803-41.845037 12.688997-81.96478 15.290241-123.412774 0.944512-15.021112 2.529613-34.078143 12.490475-41.588187 80.097246-7.021927 147.461493-12.548804 234.358609-16.677844-28.900214-23.044856-59.456137-43.337018-88.763626-65.170279-14.57802-10.869558-30.101575-19.919678-45.7643-30.508851-14.729469-9.958816-29.494755-25.190729-49.927109-26.334785-0.89744-12.432147-18.811438-10.285251-26.357298-16.676821-3.440355-2.938935-3.744277-9.493212-6.940063-12.432147-9.562796-9.003048-22.182208-5.434779-19.405979-20.85191 1.995447-11.033287 20.771069-18.753109 34.697243-18.007119 19.346627 1.095961 44.725644 16.817014 54.078663 31.886221 3.288906 5.340635 2.962471 12.011568 6.916527 16.676821 2.962471 3.498684 11.30037 8.280594 18.029632 12.455683 16.95823 10.543124 39.736003 22.765493 56.855916 34.661428 20.211321 14.087856 36.982286 30.321586 55.490825 43.010583 26.217105 18.007119 52.528354 28.596292 72.098062 48.51597 46.49801 0.887206 87.166245-4.52506 126.189004-6.927783 30.753421-25.28385 62.603827-48.212048 92.962252-73.496921 29.795607-24.793686 53.752228-56.726979 87.351464-77.67201 1.865487-25.63382 23.384593-46.720068 49.927109-38.812981 7.477298 2.238994 21.132296 11.70867 24.958438 18.007119 4.701069 7.719822 6.79987 24.282033 1.375324 31.908734-7.836479 11.079336-21.131273 11.242042-36.035728 16.654308-9.145287 3.288906-14.602579 11.70867-23.594371 11.101849-29.493731 15.231913-46.661739 44.550659-70.709435 65.193815C660.060639 223.941352 639.39497 234.041384 623.733269 251.698532zM600.163457 293.28672c-9.295714 18.473747-29.553083 25.936719-38.82526 44.364417 4.152577 2.822278 13.07376 0.769526 19.419282 1.423419 11.55722-19.009959 31.767518-29.249161 45.73974-45.786813C619.930663 291.163359 610.168322 294.54641 600.163457 293.28672zM559.975153 293.28672c-9.401114 15.581883-25.950022 24.001647-33.29736 41.611723 12.665461 7.65126 20.246113-6.274914 24.922622-12.479219 7.976672-10.56666 25.937742-16.864086 29.15604-29.132504C573.829695 293.28672 566.889633 293.28672 559.975153 293.28672zM652.86475 293.28672c-14.004969 6.624884-22.425755 16.140609-31.896454 26.333762-5.492084 5.924943-14.530948 11.778254-13.879102 19.453051 17.015535-6.158257 21.822005-24.468275 38.860053-30.5549 1.399883-1.796926 1.341554-5.061272 2.752694-6.90527 4.803399-1.189082 9.492188-2.541893 9.701966-8.326643C656.574235 293.28672 654.707724 293.28672 652.86475 293.28672zM636.258537 341.825203c18.404162-14.880919 42.544979-31.371498 54.079686-48.539506C666.264944 302.546617 645.17972 322.04674 636.258537 341.825203zM711.132828 293.28672c-15.289218 20.75879-39.141462 33.004695-54.103222 54.113455 3.533476 4.758374 12.712533 3.918239 20.806885 4.105504 14.436804-22.974247 40.375569-34.520211 55.466266-56.866149C726.433302 293.706275 719.494263 292.749484 711.132828 293.28672zM745.792209 294.63953c-0.686638 4.431939 2.51938 4.92108 1.37737 9.749038-20.188808 12.595876-35.092239 30.508851-49.915853 48.516993 2.286066 3.287883 8.082072 3.032056 13.879102 2.77623 18.298761-24.212448 44.245713-40.772612 66.557882-61.042261C768.966001 291.396673 755.018338 293.939589 745.792209 294.63953zM799.884175 294.63953c-22.149463 21.808702-51.677986 36.224016-67.970044 63.83998 17.552771 1.795902 16.049534-15.417131 29.121248-18.053168 13.854543-19.87363 39.267329-28.223808 54.102199-47.139623C808.571021 292.260343 805.610596 294.849308 799.884175 294.63953zM529.441742 294.63953c-11.149944 14.787798-31.221072 20.596084-36.060287 41.657772 4.78191 0.583285 7.77815-0.559748 11.103896-1.399883 6.565533-17.469883 25.027-23.045879 31.884175-40.258912C534.0589 294.63953 531.751345 294.63953 529.441742 294.63953zM833.168232 296.086485c-21.564132 23.697725-54.661947 35.920094-70.735018 65.169255 21.880333 11.592013 27.454282-7.697309 37.45096-16.654308 1.994424-1.795902 6.16849-1.236154 8.290827-2.775206 13.34289-9.609869 27.478841-25.353434 38.861076-36.036751 3.136433-2.984984 10.544147-1.702782 8.30413-8.350179C847.256088 296.086485 842.791403 297.321616 833.168232 296.086485zM457.308889 337.650113c4.408403 1.936095 4.652973 0.326435 9.702989 0 9.842159-15.604396 24.980951-25.843598 36.083823-40.21184C481.648227 304.69249 470.359113 322.04674 457.308889 337.650113zM435.13896 325.19443c-3.709485 3.544733-12.129248 5.481851-8.327666 12.455683 17.912975-8.886391 29.973662-23.651676 42.98807-37.436634C449.996342 300.260551 443.022511 313.206398 435.13896 325.19443zM347.762937 343.201549c28.339442 8.024767 31.232328-29.761837 49.938366-40.188304C371.787096 301.660434 362.924241 329.23035 347.762937 343.201549zM392.12633 340.426343c18.146289-0.793062 18.729573-19.173688 29.15604-27.733645 4.409426-2.473331 9.55154-4.315282 11.08036-9.679453C410.962328 302.010405 398.668327 321.952596 392.12633 340.426343zM329.732282 318.220598c-8.839319 9.469676-24.478508 18.612916-24.957415 27.779693 31.804357-0.560772 40.550555-24.187889 54.090942-42.98807C338.525552 298.324456 336.974219 310.523289 329.732282 318.220598zM303.374984 305.788451c-9.679453 16.630772-29.879518 22.789029-34.68394 44.318368 10.904351-2.962471 19.405979-8.280594 22.228257-19.407002 10.894118-6.158257 19.476587-14.718213 24.946159-26.310226C310.266951 303.456337 307.958372 305.695331 303.374984 305.788451zM271.513322 307.117726c-13.411451 12.502755-30.252001 21.553898-37.471426 40.282448 1.783623 1.866511 6.01704 1.329275 9.725502 1.376347 11.941983-13.482059 22.426779-28.457122 36.049031-40.258912C278.171975 306.931484 274.918885 306.978557 271.513322 307.117726zM204.931904 337.650113c-11.265578 29.482475-61.145615 42.288129-56.878428 83.22447 16.980743-21.832238 46.254463-31.442106 48.539506-67.969021 2.834558-0.397043 2.717901-3.731998 5.551436-4.129041 3.615341 3.429099 6.834662-1.376347 12.491499 0 3.055592-20.037359 22.390963-23.814382 29.132504-40.258912C223.090473 310.523289 221.201449 331.305615 204.931904 337.650113zM865.064686 309.917492c-21.937638 21.994943-51.570539 36.271088-66.570161 65.170279 7.230682 2.238994 12.957103-8.000208 16.643052-13.83203 12.013615-8.350179 23.38357-17.307178 33.249265-27.757181 5.412266-1.094938 7.16212-5.807263 11.138688-8.303106 5.796006-3.429099 13.680581-4.827959 12.456706-15.277962C869.672634 309.917492 867.374288 309.917492 865.064686 309.917492zM182.737416 334.898443c-16.186657 5.5279-21.296025 22.158672-29.143761 36.083823 20.385283-17.563004 41.215704-34.636868 54.102199-59.665915C193.584462 313.393663 187.962417 323.958276 182.737416 334.898443zM157.756465 316.891324c1.294482 6.018064 4.058432 8.466835 1.387603 15.207353 9.55154-1.539053 11.382235-10.775414 15.243169-18.007119C167.214884 313.345568 163.307901 315.934532 157.756465 316.891324zM877.532649 330.699818c-23.127743 15.744589-46.264697 31.41857-59.630099 56.889685 23.185049-7.369851 35.547611-37.482683 65.170279-42.98807C883.107621 338.094228 883.796306 330.909595 877.532649 330.699818zM845.636195 401.467581c18.135032-15.325034 55.337329-26.917046 37.435611-49.961902-7.126304 1.515516-8.022721 8.722662-13.843286 13.901615-1.9934 1.795902-6.144954 1.095961-8.314363 2.775206-11.579733 9.073656-32.247448 30.999015-34.685987 37.435611-1.469468 3.872191-1.935072 9.237385 0 13.855566C833.706491 416.559301 837.191872 408.582629 845.636195 401.467581zM487.841276 376.48663c-43.664475 28.457122-82.117253 62.161758-120.673383 95.701642-11.114129 15.2094-22.834055 29.855982-40.234353 38.860053-6.112208 18.310018-26.684756 22.251793-33.262568 40.21184-18.310018 10.79895-26.89351 31.302937-45.750997 41.589211-2.415003 20.151969-0.874927 39.815821 1.36509 56.819077 32.584116-24.724101 55.80498-58.802244 91.550089-80.401168 1.212618-4.337795 3.755534-7.322779 5.551436-11.102872 59.071374-46.323025 110.654192-100.110045 169.20061-146.971329 8.629541-13.551644 25.797549-18.566868 33.260521-33.308617C533.522688 371.168508 508.565273 378.00317 487.841276 376.48663zM242.345002 386.213155c-1.912559 57.07695 1.423419 96.612385 2.788509 153.945161 46.76714-43.827181 91.188862-90.058109 137.290853-134.539182 14.975063-3.987824 21.283746-16.630772 30.531364-26.332738C351.564519 382.900713 304.844451 390.132418 242.345002 386.213155zM612.652909 379.286396c-0.01228 1.841951-2.436492 1.236154-2.775206 2.729158-90.944292 70.861908-172.010609 151.613046-260.715907 224.665853-25.003464 31.44313-57.834196 55.000662-83.22447 85.999676 109.558232 3.730974 218.171951 1.890047 321.745888 2.775206 5.189186-4.52506 8.432043-11.008728 12.479219-16.607236 17.46886-7.814989 29.540803-21.855774 42.987047-34.7085 40.99467-39.044248 85.720314-70.930469 130.365116-105.381096-0.281409-17.35425 4.044106-30.205952 4.174066-47.163159-6.601348-3.288906-8.641821 8.559956-18.030655 6.973832-17.377786 19.593244-35.33681 38.603203-56.867172 54.019311-4.384867 12.898775-16.665565 18.61394-26.332738 26.380834-9.644661 7.720845-17.772782 17.423835-26.345018 26.358321-23.208585 24.047696-51.058886 45.296649-72.132854 69.321832-9.586332 0.418532-19.662829 17.610076-33.29736 16.676821-13.002129-0.932232-25.504884-18.962887-15.242146-30.486338 14.275121-7.976672 23.162536-21.272489 38.824237-27.77867 13.399171-15.884782 30.450523-31.209816 47.185672-47.139623 47.022966-44.877093 100.483552-100.017948 146.981563-138.713248 6.112208-5.084808 15.256472-8.956999 18.008142-15.231913 4.094248-9.190313-0.581238-20.992103-5.516644-30.508851C718.770785 397.735583 665.553747 387.356189 612.652909 379.286396zM891.421984 388.988362c-1.818415-0.092098-1.947352-1.794879-4.186346-1.39886-21.972431 18.216897-48.807612 31.605835-59.606563 61.018725 20.046568-11.359722 43.255153-31.605835 63.792908-47.140647C891.421984 397.292492 891.387191 393.117402 891.421984 388.988362zM195.228915 393.117402c-18.555611 18.473747-35.255968 38.766932-54.090942 56.867172-0.105401 7.719822-3.440355 11.70867-1.39886 18.029632 10.985192-3.148713 13.247722-13.038968 20.804838-22.158672 13.833053-16.654308 36.796044-28.1532 38.836517-51.338249C197.619358 394.470213 197.467909 392.767432 195.228915 393.117402zM828.993143 477.717196c22.344914-13.690814 38.054711-34.030048 62.428841-45.740764-0.442068-4.175089 1.505283-10.799974-2.786463-11.102872C868.332103 439.394379 841.180719 451.103048 828.993143 477.717196zM195.228915 429.201226c-15.82543 23.978111-40.165792 39.350217-51.326992 67.969021-4.080945 0.980327-5.970992 4.176113-8.314363 6.904247 1.072425 6.064113-3.743254 10.799974 0 15.278985 10.157337-1.399883 13.690814-9.447163 18.007119-16.654308 18.193361-12.805654 29.494755-32.444946 45.786813-47.139623-0.99056-9.750061 1.598404-20.293185 0-26.357298C197.980585 429.201226 196.592982 429.201226 195.228915 429.201226zM859.52553 483.291145c13.528108-12.361539 42.091654-18.636452 27.710109-33.307593-21.597901 21.855774-53.04103 33.891901-65.181535 65.192791 7.626701 1.586125 8.281617-3.731998 9.701966-8.30413C841.622788 503.141238 851.864036 490.243487 859.52553 483.291145zM148.053476 540.158317c-16.047488 2.379187-19.080567 17.261129-16.629749 34.614355 7.999185-3.52222 7.766894-12.876262 13.866822-19.407002 2.915399-3.079128 8.209986-3.708462 11.102872-6.904247 0.943488-1.072425 0.465604-5.5279 1.364067-6.904247 13.34289-20.360723 48.597835-34.636868 40.22412-62.393026C181.443957 499.549433 157.500639 512.588401 148.053476 540.158317zM834.544579 529.055444c20.233833-13.085016 41.949414-24.63098 55.478546-44.38693C868.646258 491.153206 850.498946 512.541329 834.544579 529.055444zM881.695458 511.048325c-9.53926 14.461363-27.733645 20.339234-36.059264 36.036751 13.260002-7.627724 34.462906-19.125593 43.00035-36.036751C886.315686 511.048325 884.005061 511.048325 881.695458 511.048325zM196.592982 520.752338c-17.214057 18.821671-32.968879 39.114856-49.939389 58.217936-0.372483 2.449795 3.942799 6.927783 0 8.30413-4.151553 3.195785-11.860119 0.652869-16.607236 0-3.044336 42.007743-3.685949 83.59593 1.376347 130.364093 10.239202-10.939143 20.082384-21.786189 29.120224-31.885198 1.737574-1.937119 0.840134-5.877871 2.76395-8.30413 17.377786-22.088064 43.781132-31.511691 41.624003-60.995189-22.333658 8.654101-29.761837 32.18912-44.387953 48.493457 0 3.686972 0 7.417947 0 11.103896-4.034896 1.048889-3.603061 6.577812-9.714246 5.5279-14.729469-16.118096-1.983167-29.762861 9.714246-44.341904 13.680581-17.118889 32.223912-32.793894 42.989093-49.960879-1.411139-9.493212 1.597381-15.208377-1.388627-23.535019-19.4991 17.027815-35.954887 37.08564-51.314713 58.219983-1.130753 3.941775 1.959631 3.591805 1.376347 6.973832-3.580548 3.777023-5.622044 9.165754-13.843286 8.302083-5.983271-2.378164-5.77247-10.892071-5.563716-19.452028 21.669532-24.538883 43.408649-49.02967 66.581418-72.098062 2.623757-8.070816 3.207042-15.464203 1.376347-24.933879C199.380468 520.752338 197.980585 520.752338 196.592982 520.752338zM884.471688 535.983227c-10.694573 10.590196-25.844621 16.654308-31.909757 31.885198-15.043624 8.070816-35.150568 18.473747-33.285081 38.812981 19.105127-19.243273 41.262776-35.477003 65.194838-49.915853 1.64343-6.204305 4.922103-10.775414 4.163833-19.405979C886.873388 537.26543 886.710682 535.562649 884.471688 535.983227zM819.27685 538.759457c0.63138 11.101849-4.068665 20.50194-1.375324 31.907711 6.204305-1.211595 9.925047-4.874007 11.091616-11.102872-2.13564-2.937912-3.977591-6.158257-5.54018-9.702989 3.173273-2.844791 3.241834-8.746198 5.54018-12.501732C824.619532 536.659633 824.08332 539.855418 819.27685 538.759457zM834.544579 617.784278c9.819646-1.237177 10.390651-11.756765 20.794605-12.455683 6.996344-14.252609 30.367635-12.175297 31.896454-31.886221C864.493681 583.053266 846.592986 597.491093 834.544579 617.784278zM736.065683 606.681406c-25.77299 34.777061-66.276473 54.836933-91.503017 90.174766 46.427402 3.335978 81.227999 6.018064 122.012891 8.303106 3.64911-40.958854 9.247618-84.59877 1.410116-116.484991C755.624135 593.012082 748.977761 602.948385 736.065683 606.681406zM834.544579 635.860982c-5.608741 9.18929-8.211009 21.341051-16.643052 27.710109 10.636245-5.574972 19.371186-14.835893 30.485315-23.604604 13.447267-10.496052 36.830837-22.88215 38.848797-38.812981C868.400664 605.934392 853.625146 626.647133 834.544579 635.860982zM815.137577 698.255031c14.286378-4.990664 34.404578-25.984814 49.927109-37.414121 10.894118-8.070816 32.585139-15.394618 19.407002-31.907711C859.37408 650.019447 830.510706 667.396209 815.137577 698.255031zM200.756815 655.267984c-15.173584 24.607444-45.518706 41.285289-48.550763 73.474408-3.662413 1.888-5.247514 5.828752-9.702989 6.972808-5.994528-0.933255-5.994528-7.862062-11.078313-9.702989 0.186242 13.179161 0.127913 18.962887 1.375324 31.838126 8.233522-2.822278 12.362562-9.79611 18.030655-15.231913-1.830695-12.477172 5.434779-15.813151 15.254425-16.607236 11.627828-24.88783 45.578058-31.839149 38.847773-70.744227C203.532021 655.267984 202.144418 655.267984 200.756815 655.267984zM866.442056 680.225399c5.829775-3.988848 22.438035-10.099009 18.029632-15.278985C878.243847 669.775396 870.967116 673.599492 866.442056 680.225399zM852.562954 694.056406c2.987031-4.431939 10.134825-4.619204 11.102872-11.079336C856.715531 682.509419 848.784908 688.388313 852.562954 694.056406zM869.228519 701.030237c8.80555-1.841951 15.767102-5.457292 18.008142-13.878079C879.852484 690.395016 871.877859 693.076078 869.228519 701.030237zM170.247964 748.148371c-19.744693 9.91379-36.049031 30.463826-34.661428 56.866149 28.222785-29.086455 51.874461-62.72253 80.43596-91.50404-1.609661-7.16212-1.469468-16.117073-9.691733-16.654308C196.14989 715.819059 175.810656 724.613352 170.247964 748.148371zM806.799678 750.946091c23.312962-11.849886 38.288025-32.001855 59.642378-45.786813-0.140193-1.702782-0.432859-3.288906-2.777253-2.775206C843.921133 717.801203 823.744605 732.729194 806.799678 750.946091zM719.447191 843.850014c3.441379 6.111185-2.566452 8.863878-4.174066 13.879102 14.473643-5.38873 24.000624-15.768125 34.672684-24.980951 4.070712 0.396019 4.267187-3.149736 8.337899-2.752694 17.34197-17.657148 38.882566-30.578436 58.219983-47.162136 18.099217-15.511275 37.645388-36.270065 63.815421-38.814004-42.60126 42.008766-93.601818 75.596745-137.314389 116.507504 21.844517-0.676405 31.208792-24.980951 48.550763-34.706453 15.897062-10.893094 31.290657-22.344914 44.400233-36.06131 18.286482-12.150738 34.520211-26.472931 51.27992-40.21184-2.588965-10.894118 2.787486-28.1532-1.388627-40.212864C826.554604 750.340293 775.310499 799.439548 719.447191 843.850014zM227.101833 720.438263c-11.790534 13.947663-25.78527 26.869974-38.812981 44.38693-13.410428 17.96107-34.33397 33.985022-37.459147 58.21896-1.738597 0.607844-2.822278 1.77339-2.775206 4.176113-2.415003 3.148713-10.659781 0.397043-11.090593 5.5279 1.061169 10.239202 17.165961 12.174274 24.980951 11.102872-0.164752-6.320962-5.481851-7.463995-4.187369-15.231913 22.89443-27.080775 43.139519-56.725956 70.745251-79.071893 1.632173-9.213849 14.239306-14.087856 12.465916-22.182208C237.668493 723.726146 232.373906 722.022341 227.101833 720.438263zM379.648135 731.540112c1.74883 4.711302 4.093225 8.840342 9.702989 9.702989 3.242857-1.399883 4.501524-4.782933 4.198625-9.702989C388.242883 732.145909 383.671775 727.948307 379.648135 731.540112zM257.610684 731.540112c-6.79987 17.213034-28.304649 27.149337-31.885198 42.989093 13.30605-13.925151 30.089295-24.445762 38.847773-42.989093C262.229888 731.540112 259.932566 731.540112 257.610684 731.540112zM433.738054 735.715201c-10.589173 11.685133-25.085328 29.155017-31.908734 41.542138 12.514012-4.339842 17.84339-17.214057 27.768437-24.911366 7.743358-6.0416 20.502963-8.187473 23.569812-19.429515C445.097776 732.683145 436.64322 732.473367 433.738054 735.715201zM521.137613 735.715201c5.517667 8.862855 21.015639 10.752902 26.346041 0C539.564287 732.916459 526.723841 730.676441 521.137613 735.715201zM562.7258 741.244124c3.487428-1.144056 7.440459-1.796926 6.939039-6.974855-4.51278 0.840134-6.437619-0.886183-9.69071-1.351787C559.297724 737.254254 561.921481 738.350215 562.7258 741.244124zM577.980225 750.946091c9.529027-4.383844 17.633612-15.97688 29.108968-6.927783 1.644453-4.431939 8.630564-3.429099 9.704013-8.303106-7.743358-2.240017-22.976294-2.006703-29.109991-1.446955C591.113337 746.514151 578.680167 742.829226 577.980225 750.946091zM271.513322 750.946091c-10.600429 7.019881-17.797341 14.158465-29.16832 26.311249-14.216793 15.277962-20.618597 26.521027-33.272801 43.058678-8.968256 11.685133-15.569604 14.926968-5.54018 26.309202 6.973832-0.931209 9.679453 2.332115 16.653285 1.400906 6.589069-25.775037 27.383674-37.321 38.800701-58.267055 2.238994-27.312042 19.487843-39.674605 33.285081-55.490825C280.235984 734.712361 277.320585 744.275157 271.513322 750.946091zM701.382766 755.12118c6.378268-4.267187 13.036921-8.256034 16.664541-15.277962-8.105608-4.383844-22.636556-2.332115-34.660404-2.798742C684.692642 747.750305 692.670338 751.832274 701.382766 755.12118zM740.253052 741.244124c-6.27389 17.749246-33.447786 14.625092-29.120224 42.98807 13.936407-13.787004 29.317723-26.170033 40.22412-42.98807C747.623927 741.244124 743.926722 741.244124 740.253052 741.244124zM738.85317 784.231171c12.362562-13.551644 31.593556-20.199041 41.588187-36.083823-3.789303-2.192945-9.586332-2.379187-13.865799-4.129041C761.573637 760.742201 738.85317 767.111259 738.85317 784.231171zM547.483654 760.626567c2.134617-1.63422 6.099928-8.491395 4.116761-9.680477C550.51571 753.628176 542.24535 756.265236 547.483654 760.626567zM344.998987 752.345973c-30.100552 2.541893-45.682435 39.700187-34.672684 62.395072C338.245166 817.07316 371.180276 774.389012 344.998987 752.345973zM558.550711 774.529205c6.204305-5.38873 17.622356-12.898775 16.665565-20.806885C568.8728 759.90309 562.457694 765.921153 558.550711 774.529205zM716.659705 821.645292c10.087753-5.621021 15.545044-7.953136 22.193465-13.833053 20.246113-17.912975 46.299489-36.013215 65.192791-51.2922-0.186242-1.701758-0.442068-3.287883-2.797719-2.797719-23.255657 16.023952-41.98523 36.525891-67.945485 49.915853-3.557012-1.049912-5.865591-3.335978-6.939039-6.904247-6.647397 2.121314-9.504468 7.999185-18.030655 8.280594-11.148921 25.843598-31.383778 42.614563-56.854892 54.114478C684.074565 868.808452 694.968683 833.79603 716.659705 821.645292zM480.888933 825.820382c9.154497-0.140193 33.320896-22.579251 33.29736-37.415145 0-12.151761-10.205433-18.310018-18.007119-26.37981-13.07376 8.209986-29.740348 12.806677-37.47245 26.37981C457.915709 807.92992 467.665771 826.03016 480.888933 825.820382zM668.119175 788.405237c0.338714-27.965935-34.484396-27.663036-42.974767-2.798742 0.080841 15.536858-1.434675 24.39869 1.351787 37.436634C648.479883 821.59822 667.875628 807.860335 668.119175 788.405237zM881.695458 773.128299c-36.7019 27.52489-72.773444 55.724139-105.429191 87.398536 3.791349 2.729158 12.152784 0.840134 18.065448 1.37737 25.238824-30.253024 59.315944-51.642171 90.139973-76.29771C883.234511 781.804912 887.342062 772.591063 881.695458 773.128299zM191.041546 813.341163c8.676613-8.909927 19.290345-15.882736 23.593348-29.108968 3.954055-0.74599 11.790534-4.78191 6.915503-9.701966C213.037513 789.105179 196.243011 795.428188 191.041546 813.341163zM534.993179 838.322114c-4.607948 4.78191-12.793374 5.622044-13.855566 13.83203 15.09172 5.715165 19.172665-11.19497 24.947182-19.405979 9.608845-6.53074 14.893198-17.469883 24.980951-23.535019 2.00568-7.674796 5.072529-14.34573 5.51562-23.605627-1.760087-0.092098-1.911536-1.771343-4.152577-1.375324C555.833833 798.763143 550.364261 822.437331 534.993179 838.322114zM819.27685 860.526835c17.565051 4.408403 26.218128-11.615549 33.285081-22.204721 11.874445-8.466835 27.756157-12.945847 30.508851-30.508851C856.36556 819.917952 835.955718 838.322114 819.27685 860.526835zM379.648135 849.40145c10.56666 8.979512 14.368242-6.018064 19.418258-12.478196 5.843078-7.416923 22.473851-13.645788 16.643052-24.981974C399.508461 820.24541 389.339868 834.590116 379.648135 849.40145zM243.767398 848.026126c5.970992-11.593036 11.5695-23.535019 19.405979-33.285081-1.772366-0.070608-1.947352-1.797949-4.186346-1.399883C255.745197 824.980247 236.292146 834.870502 243.767398 848.026126zM171.635567 843.850014c8.082072-3.895727 9.91379-14.089903 13.890358-22.204721C176.591439 827.476091 177.010995 834.287217 171.635567 843.850014zM572.428789 829.994448c4.805446 1.095961 5.353938-2.075265 9.704013-1.376347C582.716086 821.5051 571.601958 824.723398 572.428789 829.994448zM271.513322 829.994448c-3.26537 6.928806-10.55438 9.821693-12.525268 18.031679 12.362562 5.92392 31.850405 1.375324 44.38693 1.375324C293.531801 842.147232 283.2926 835.291081 271.513322 829.994448zM412.955728 849.40145c11.616572-0.886183 21.89159 7.579629 40.21184 4.199649C442.881294 841.401242 419.965375 823.977407 412.955728 849.40145zM587.684238 838.322114c-5.959735 3.731998-11.673877 7.766894-13.854543 15.278985 6.962575 3.615341 11.825326-5.365194 22.181185-2.798742 0.607844 2.636037 2.987031 3.475148 2.77623 6.927783 4.199649-0.840134 11.954263 1.794879 13.866822-1.400906C603.824847 850.801333 595.683423 844.643076 587.684238 838.322114zM860.914156 859.128999c5.586229 0.443092 5.479805 6.506181 12.467963 5.503341 3.112897-4.571109 9.353019-18.192338 2.762927-23.511483C871.142102 847.162456 863.652524 850.754261 860.914156 859.128999zM418.461115 891.013173c-13.003152 0.140193-26.660196-2.332115-40.212864-2.775206-50.242288-1.609661-79.211063-0.162706-122.012891-2.752694-21.948895-1.351787-51.27992-4.758374-63.793932-1.376347-4.605901 5.972015-2.845815 16.562211 0 22.182208 24.654516 9.936303 51.664683 3.895727 76.249615 5.526877 26.40437 1.727341 50.627051 3.827165 76.307943 4.176113 56.282864 0.654916 111.482047 4.711302 170.588213 4.128017 27.231201-0.25685 54.534034-1.982144 81.801051-1.39886 52.52733 1.213641 105.137549 9.097192 155.355277 2.799766 15.592117 3.964288 32.702819 1.351787 48.504714-1.400906 12.759605-2.192945 25.343201-3.592828 22.204721-19.407002C682.324712 899.132084 550.574039 889.61329 418.461115 891.013173z" p-id="4940" fill="#dbdbdb"></path></svg>