<?xml version="1.0" standalone="no"?><!DOCTYPE svg PUBLIC "-//W3C//DTD SVG 1.1//EN" "http://www.w3.org/Graphics/SVG/1.1/DTD/svg11.dtd"><svg t="1496229467017" class="icon" style="" viewBox="0 0 1025 1024" version="1.1" xmlns="http://www.w3.org/2000/svg" p-id="4038" xmlns:xlink="http://www.w3.org/1999/xlink" width="48.046875" height="48"><defs><style type="text/css"></style></defs><path d="M176.527047 731.525346c115.951854 2.257368 216.43341 19.59642 290.584665 50.144155 1.265655 0.518154 2.605636 0.777231 3.932875 0.777231 2.017403 0 4.024189-0.59248 5.746414-1.745585 2.864713-1.915471 4.582691-5.134823 4.582691-8.581397l0.040348-554.291146c0-4.230176-2.580153-8.033513-6.510904-9.59647L180.544865 91.099568c-3.176879-1.265655-6.780599-0.872792-9.613458 1.04905-2.832859 1.923966-4.529602 5.124205-4.529602 8.54742l0 620.50445C166.401805 726.825858 170.9038 731.41492 176.527047 731.525346z" p-id="4039" fill="#e6e6e6"></path><path d="M1019.837778 189.542484c-2.61413-1.947325-5.996997-2.544052-9.125034-1.611799l-104.108635 31.125349c-4.37458 1.308127-7.370955 5.330192-7.370955 9.893771l0 535.463464c0 0 0.462941 8.447611-8.430623 8.447611-10.184702 0-16.873987 0-16.873987 0-83.985566 0-240.060389 8.717306-341.74814 67.105209l-20.182529 11.556536-20.180405-11.556536c-101.689874-58.385779-257.762574-67.105209-341.74814-67.105209 0 0-17.198895 0-21.537374 0-4.015695 0-3.769359-4.82478-3.769359-4.822656L124.762598 228.949805c0-4.563579-2.996375-8.585644-7.368831-9.893771L13.285132 187.930685c-3.128037-0.932253-6.510904-0.335526-9.127158 1.611799S0 194.56051 0 197.822332l0 647.839205c0 2.913555 1.233801 5.693325 3.391361 7.653392 2.159683 1.95582 5.043509 2.913555 7.944322 2.624748 30.942721-3.034599 79.317932-6.648937 134.049025-6.648937 120.207514 0 216.811408 17.553533 279.412498 50.78123 9.197236 4.82478 62.520394 33.558975 87.204917 33.558975 24.684524 0 78.005558-28.732072 87.20067-33.558975 62.603214-33.227696 159.207107-50.78123 279.414621-50.78123 54.726846 0 103.106304 3.614338 134.046901 6.648937 2.902937 0.288807 5.786762-0.668929 7.946446-2.624748 2.15756-1.960067 3.389238-4.737713 3.389238-7.653392L1024 197.822332C1023.997876 194.56051 1022.454032 191.489809 1019.837778 189.542484z" p-id="4040" fill="#e6e6e6"></path><path d="M547.202628 780.701147c1.724349 1.153105 3.731135 1.745585 5.746414 1.745585 1.329363 0 2.66722-0.259077 3.934998-0.777231 74.149132-30.549859 174.632811-47.88891 290.584665-50.144155 5.623247-0.110426 10.127365-4.699488 10.127365-10.322735L857.596071 100.696037c0-3.425339-1.696742-6.625578-4.529602-8.54742-2.832859-1.919719-6.436579-2.314705-9.615582-1.04905L549.092616 208.232134c-3.930751 1.562957-6.508781 5.366293-6.508781 9.59647l0.040348 554.291146C542.619937 775.566325 544.340039 778.785676 547.202628 780.701147z" p-id="4041" fill="#e6e6e6"></path></svg>