<?xml version="1.0" standalone="no"?><!DOCTYPE svg PUBLIC "-//W3C//DTD SVG 1.1//EN" "http://www.w3.org/Graphics/SVG/1.1/DTD/svg11.dtd"><svg t="1496229544068" class="icon" style="" viewBox="0 0 1024 1024" version="1.1" xmlns="http://www.w3.org/2000/svg" p-id="5751" xmlns:xlink="http://www.w3.org/1999/xlink" width="48" height="48"><defs><style type="text/css"></style></defs><path d="M883.958 301.292h-99.619v-124.528c0-27.505-22.302-49.808-49.809-49.808h-423.372c-27.506 0-49.808 22.302-49.808 49.808v124.528h-124.522c-27.505 0-49.808 22.302-49.808 49.808v622.608c0 27.506 22.302 49.809 49.808 49.809h747.131c27.505 0 49.807-22.303 49.807-49.809v-622.608c0-27.506-22.302-49.808-49.807-49.808zM473.036 388.456l-136.974 74.714-2.932-0.733c-4.194 7.842-12.46 13.184-21.973 13.184-13.752 0-24.903-11.162-24.903-24.903v-273.954c0-13.752 11.151-24.903 24.903-24.903 9.516 0 17.782 5.34 21.976 13.184l2.929-0.733 149.426 174.337-0.732 2.927c7.844 4.19 13.183 12.453 13.183 21.978 0.001 13.74-11.151 24.903-24.903 24.903zM522.844 948.804c0 6.859-5.576 12.453-12.453 12.453-6.878 0-12.453-5.593-12.453-12.453v-498.086c0-6.883 5.575-12.453 12.453-12.453 6.877 0 12.453 5.57 12.453 12.453v498.086zM759.436 450.718c0 13.741-11.15 24.903-24.905 24.903-9.514 0-17.778-5.343-21.972-13.184l-2.931 0.733-136.974-74.714c-13.754 0-24.906-11.163-24.906-24.903 0-9.525 5.341-17.788 13.185-21.978l-0.732-2.927 149.426-174.337 2.929 0.733c4.192-7.845 12.46-13.184 21.974-13.184 13.754 0 24.905 11.151 24.905 24.903v273.954z" p-id="5752" fill="#dbdbdb"></path><path d="M883.958 301.292h-99.619v-124.528c0-27.505-22.302-49.808-49.809-49.808h-423.372c-27.506 0-49.808 22.302-49.808 49.808v124.528h-124.522c-27.505 0-49.808 22.302-49.808 49.808v622.608c0 27.506 22.302 49.809 49.808 49.809h747.131c27.505 0 49.807-22.303 49.807-49.809v-622.608c0-27.506-22.302-49.808-49.807-49.808zM473.036 388.456l-136.974 74.714-2.932-0.733c-4.194 7.842-12.46 13.184-21.973 13.184-13.752 0-24.903-11.162-24.903-24.903v-273.954c0-13.752 11.151-24.903 24.903-24.903 9.516 0 17.782 5.34 21.976 13.184l2.929-0.733 149.426 174.337-0.732 2.927c7.844 4.19 13.183 12.453 13.183 21.978 0.001 13.74-11.151 24.903-24.903 24.903zM522.844 948.804c0 6.859-5.576 12.453-12.453 12.453-6.878 0-12.453-5.593-12.453-12.453v-498.086c0-6.883 5.575-12.453 12.453-12.453 6.877 0 12.453 5.57 12.453 12.453v498.086zM759.436 450.718c0 13.741-11.15 24.903-24.905 24.903-9.514 0-17.778-5.343-21.972-13.184l-2.931 0.733-136.974-74.714c-13.754 0-24.906-11.163-24.906-24.903 0-9.525 5.341-17.788 13.185-21.978l-0.732-2.927 149.426-174.337 2.929 0.733c4.192-7.845 12.46-13.184 21.974-13.184 13.754 0 24.905 11.151 24.905 24.903v273.954z" p-id="5753" fill="#dbdbdb"></path></svg>