<?xml version="1.0" standalone="no"?><!DOCTYPE svg PUBLIC "-//W3C//DTD SVG 1.1//EN" "http://www.w3.org/Graphics/SVG/1.1/DTD/svg11.dtd"><svg t="1496229598519" class="icon" style="" viewBox="0 0 1134 1024" version="1.1" xmlns="http://www.w3.org/2000/svg" p-id="6505" xmlns:xlink="http://www.w3.org/1999/xlink" width="53.15625" height="48"><defs><style type="text/css"></style></defs><path d="M12.808846 170.831788l386.034551-0.424603c6.581341-0.389219 11.322737-3.219903 12.95038-9.801244l35.525086-116.447269c14.754941-30.111403 37.152729-46.42322 70.767104-42.672564L771.36143 0l-0.106151 49.643123-240.112783 0.778438c-16.701036 2.158397-27.917622 10.508915-33.614374 25.086938l-23.494678 79.223773c-2.724533 11.322737 0.141534 16.488735 8.739737 15.533379l80.745265 0.035384-44.760193 754.165024L63.230407 924.466059 12.808846 170.831788 12.808846 170.831788zM130.423772 1023.999991l902.563641-4.38756c65.778023-7.041327 97.021699 7.182861 100.878506-70.23635L0 953.76364C1.238424 1024.601511 55.375259 1022.690799 130.423772 1023.999991L130.423772 1023.999991zM653.286518 923.404553l356.913888-2.299931c65.813406-7.07671 78.091499-42.106427 81.98369-119.525638L570.382856 802.180504C567.552172 878.184373 580.573319 913.426391 653.286518 923.404553L653.286518 923.404553zM626.961155 623.245882c-41.257221 2.936835-67.724118 23.636213-70.448652 72.783966 3.467588 47.661644 31.562128 66.131858 70.767104 71.404008 19.567104-1.344575 38.957291-9.093573 53.216862-22.397788 16.205667 13.410366 33.649758 21.230131 55.198341 22.680857 20.310159 0.106151 36.798894-5.201382 47.838562-18.399447 10.048929 11.818106 26.289979 17.904077 49.253904 17.727159 23.105459-0.035384 41.575673-7.430546 51.659986-17.514858 12.738079 12.844229 29.651416 18.505598 49.360055 19.284036 19.354803-2.724533 34.817415-9.730477 47.201658-18.399447 16.205667 15.03801 35.525086 19.567104 56.755217 17.585625 45.92785-9.942778 65.388804-37.471181 62.841188-79.683759-6.793642-45.538631-31.809813-63.442708-67.44105-65.105735-19.991707-2.406082-37.8604 5.696752-54.561437 19.673255-13.410366-14.401106-30.359087-20.274775-50.916931-17.621009-16.311817-3.432205-31.986731 3.219903-47.237042 16.842571-10.048929-11.216586-25.228472-16.771804-44.547892-17.904077-15.781064-0.778438-34.46358 4.069108-48.192398 17.33794-1.69841 1.627643-3.29067 1.203041-4.564478 0.459986-14.153421-15.462612-32.340566-19.390186-52.863026-19.284036-19.991707-0.212301-35.525086 8.56282-47.944713 23.494678C665.741528 628.234963 647.271314 620.556732 626.961155 623.245882L626.961155 623.245882zM684.636345 463.772214c-78.834554 8.421285-116.836488 50.70463-114.005804 126.708499l520.456664 0c-3.892191-77.419211-38.709606-119.631789-104.523012-126.708499L684.636345 463.772214 684.636345 463.772214zM68.467173 230.170005l7.182861 142.56033c2.299931 7.324395 6.829026 11.428887 14.825708 10.7566l251.860122-2.866068c5.838286-0.070767 9.518175-2.936835 11.35812-8.102833l37.75425-139.481961c-0.778438-5.165999-3.042985-8.66897-7.996683-9.058189L75.862335 224.331719C71.439391 224.402486 68.962543 226.383965 68.467173 230.170005L68.467173 230.170005zM503.472559 372.447267l7.182861-139.092742c-2.264547-7.289012-4.316793-9.518175-10.898134-9.199723l-37.435798-0.743055c-5.909053 0.141534-9.553559 3.007602-11.393504 8.1736l-38.85114 138.491222c0.778438 5.236766 3.007602 8.66897 7.961299 9.093573l76.003869-0.813822C500.500341 378.285553 502.941806 376.26869 503.472559 372.447267z" p-id="6506" fill="#dbdbdb"></path></svg>