<?xml version="1.0" standalone="no"?><!DOCTYPE svg PUBLIC "-//W3C//DTD SVG 1.1//EN" "http://www.w3.org/Graphics/SVG/1.1/DTD/svg11.dtd"><svg t="1496229653025" class="icon" style="" viewBox="0 0 1196 1024" version="1.1" xmlns="http://www.w3.org/2000/svg" p-id="8074" xmlns:xlink="http://www.w3.org/1999/xlink" width="56.0625" height="48"><defs><style type="text/css"></style></defs><path d="M288.053797 553.272345l590.034265 0c32.523226 0 58.894246-20.752513 58.894246-53.282248l0.006509 0L936.988817 58.762447c0-32.479294-26.377528-58.762447-58.900754-58.762447L288.053797 0c-32.433734 0-58.804753 26.283154-58.804753 58.762447l0 441.22765C229.249044 532.519832 255.620063 553.272345 288.053797 553.272345z" p-id="8075" fill="#dbdbdb"></path><path d="M1014.080969 553.272345l124.679419 0c13.327884 0 24.171129-13.272561 24.171129-26.63787l0-151.260339c0-13.323003-10.843245-24.166248-24.171129-24.166248L1014.080969 351.207889c-13.323003 0-24.166248 10.843245-24.166248 24.166248l0 151.260339C989.916349 539.999784 1000.759594 553.272345 1014.080969 553.272345z" p-id="8076" fill="#dbdbdb"></path><path d="M24.21018 553.272345l124.640368 0c13.323003 0 24.166248-13.272561 24.166248-26.63787l0-151.260339c0-13.323003-10.843245-24.166248-24.166248-24.166248l-124.640368 0c-13.366935 0-24.21018 10.843245-24.21018 24.166248l0 151.260339C0 539.999784 10.843245 553.272345 24.21018 553.272345z" p-id="8077" fill="#dbdbdb"></path><path d="M1143.357052 607.623623 53.479132 607.623623c-28.671792 0-52.105828 23.432409-52.105828 52.053759l0 26.09766c0 21.829678 13.596362 40.58732 32.741263 48.298326-10.498292 9.539908-17.112606 23.281085-17.112606 38.486686l0 107.308098c0 28.66691 23.429154 52.102573 52.094438 52.102573l58.417494 0 0 92.029276 120.121807 0 0-92.029276 712.451963 0 0 92.029276 118.748502 0 0-92.029276 47.200008 0c28.627859 0 52.055386-23.434036 52.055386-52.102573l0-107.308098c0-14.955022-6.406041-28.484671-16.598431-38.000172 19.790875-7.390459 33.969752-26.488173 33.969752-48.783213l0-26.09766C1195.462879 631.056031 1172.028844 607.623623 1143.357052 607.623623z" p-id="8078" fill="#dbdbdb"></path></svg>