<?xml version="1.0" standalone="no"?><!DOCTYPE svg PUBLIC "-//W3C//DTD SVG 1.1//EN" "http://www.w3.org/Graphics/SVG/1.1/DTD/svg11.dtd"><svg t="1496229687521" class="icon" style="" viewBox="0 0 1024 1024" version="1.1" xmlns="http://www.w3.org/2000/svg" p-id="8997" xmlns:xlink="http://www.w3.org/1999/xlink" width="48" height="48"><defs><style type="text/css"></style></defs><path d="M638.848 243.2c7.744-9.664 8.256-23.296 1.28-33.472C635.968 203.84 537.408 64 352.512 64 167.104 64 72.512 205.888 68.544 211.904 61.76 222.272 62.656 235.904 70.656 245.376l196.352 231.104c1.088 1.28 2.624 1.92 3.904 2.944l-46.4 417.344c-2.368 10.048-1.024 25.536 9.536 38.784C246.976 951.808 269.568 960 301.312 960L426.88 960c33.408 0 69.376-17.408 69.376-55.616 0-25.408-35.264-331.84-46.336-427.008C450.496 476.8 451.328 476.544 451.776 475.904L638.848 243.2zM298.688 427.456l-24.832-102.4C270.272 309.952 279.488 294.848 294.528 291.2 309.504 287.616 324.672 296.768 328.32 311.808l28.032 116.16L298.688 427.456zM315.84 580.544l6.208-56 76.864 0 6.464 56L315.84 580.544zM435.52 323.456 416.384 427.968l-56.96 0 20.928-114.624C383.232 298.176 397.76 288 412.992 290.88 428.224 293.632 438.272 308.224 435.52 323.456z" p-id="8998" fill="#dbdbdb"></path><path d="M921.344 424.96l-11.648 0L909.696 124.992C909.696 71.936 883.392 64 867.648 64c-20.608 0-39.168 14.848-64.768 35.328-12.672 10.176-26.88 21.568-41.92 31.168-44.864 28.416-59.136 70.464-60.48 92.608L700.48 424.96l-18.752 0c-21.312 0-38.656 17.408-38.656 38.784l0 457.408c0 21.376 17.344 38.848 38.656 38.848l239.616 0C942.656 960 960 942.592 960 921.152L960 463.744C960 442.368 942.656 424.96 921.344 424.96zM870.4 814.016c0 15.488-12.544 27.968-27.968 27.968-15.488 0-28.032-12.544-28.032-27.968L814.4 560.704c0-15.488 12.544-27.968 28.032-27.968 15.488 0 27.968 12.544 27.968 27.968L870.4 814.016z" p-id="8999" fill="#dbdbdb"></path></svg>