<?xml version="1.0" standalone="no"?><!DOCTYPE svg PUBLIC "-//W3C//DTD SVG 1.1//EN" "http://www.w3.org/Graphics/SVG/1.1/DTD/svg11.dtd"><svg t="1496229631676" class="icon" style="" viewBox="0 0 1024 1024" version="1.1" xmlns="http://www.w3.org/2000/svg" p-id="7271" xmlns:xlink="http://www.w3.org/1999/xlink" width="48" height="48"><defs><style type="text/css"></style></defs><path d="M897.168872 661.134599c0 0-61.32981 76.795037-121.313973 136.778176-57.400315 57.405431-113.573685 98.114598-113.573685 98.114598-82.553181 82.552158-216.395492 82.552158-298.948673 0 0 0-56.17337-40.709167-113.578802-98.114598-59.978023-59.983139-121.308857-136.778176-121.308857-136.778176C45.898865 578.582441 45.898865 444.735014 128.445906 362.181833c0 0 44.122917-59.582003 103.271038-118.730125 58.287521-58.292638 131.615597-116.161626 131.615597-116.161626 82.553181-82.547041 216.395492-82.547041 298.948673 0 0 0 71.635527 56.178487 129.040958 113.583918C851.305311 300.857139 897.168872 362.181833 897.168872 362.181833 979.717959 444.74013 979.717959 578.582441 897.168872 661.134599L897.168872 661.134599zM795.757181 467.275379c0-17.083074-12.684904-29.754674-29.765931-29.754674L587.388503 437.520705 587.388503 259.012102c0-17.084097-12.68695-29.750581-29.770024-29.750581l-89.300862 0c-17.084097 0-29.770024 12.666484-29.770024 29.750581l0 178.508603L259.947915 437.520705c-17.08205 0-29.769001 12.671601-29.769001 29.754674l0 89.252767c0 17.083074 12.685927 29.751604 29.769001 29.751604L438.551686 586.27975l0 178.512696c0 17.08205 12.685927 29.749558 29.765931 29.749558l89.304955 0c17.077957 0 29.765931-27.545356 29.765931-44.627407L587.388503 586.284867l178.602747 0c17.080004 0 29.771047-12.673647 29.771047-29.756721L795.762297 467.275379 795.757181 467.275379zM795.757181 467.275379" p-id="7272" fill="#dbdbdb"></path></svg>