<?xml version="1.0" standalone="no"?><!DOCTYPE svg PUBLIC "-//W3C//DTD SVG 1.1//EN" "http://www.w3.org/Graphics/SVG/1.1/DTD/svg11.dtd"><svg t="1495108578531" class="icon" style="" viewBox="0 0 1024 1024" version="1.1" xmlns="http://www.w3.org/2000/svg" p-id="4274" xmlns:xlink="http://www.w3.org/1999/xlink" width="32" height="32"><defs><style type="text/css"></style></defs><path d="M339.008 776.992q19.008 0 36 7.008t30.016 19.488 20 29.504 7.008 36-7.008 36-20 29.504-30.016 20-36 7.488q-20 0-36.512-7.488t-29.504-20-20-29.504-7.008-36 7.008-36 20-29.504 29.504-19.488 36.512-7.008zM755.008 779.008q19.008 0 36.512 7.008t30.016 19.488 20 29.504 7.488 36-7.488 36-20 29.504-30.016 20-36.512 7.488-36-7.488-29.504-20-20-29.504-7.488-36 7.488-36 20-29.504 29.504-19.488 36-7.008zM923.008 211.008q28 0 43.488 7.488t22.016 18.496 6.016 23.488-3.488 21.504-12.512 36.992-21.504 61.504-23.488 66.496-17.504 52q-12.992 40-32.992 55.488t-48.992 15.488l-524.992 0 15.008 90.016 504 0q48 0 48 40.992 0 20-9.504 34.496t-37.504 14.496l-524 0q-20 0-33.504-8.992t-22.496-23.488-14.496-31.488-8.512-32q-0.992-6.016-5.504-28.992t-11.008-57.504-14.496-76.992-16-85.504q-19.008-100.992-43.008-224.992l-75.008 0q-15.008 0-24.992-7.488t-16.512-18.016-8.992-22.496-2.496-22.016q0-20 13.504-32.992t36.512-12.992l100.992 0q20 0 32 6.016t19.008 15.008 10.016 19.008 4.992 16.992q2.016 8 4 22.496t4 29.504q3.008 18.016 6.016 38.016l684 0z" p-id="4275" fill="#e6e6e6"></path></svg>