<?xml version="1.0" standalone="no"?><!DOCTYPE svg PUBLIC "-//W3C//DTD SVG 1.1//EN" "http://www.w3.org/Graphics/SVG/1.1/DTD/svg11.dtd"><svg t="1495108462206" class="icon" style="" viewBox="0 0 1024 1024" version="1.1" xmlns="http://www.w3.org/2000/svg" p-id="3535" xmlns:xlink="http://www.w3.org/1999/xlink" width="32" height="32"><defs><style type="text/css"></style></defs><path d="M735.588311 571.635215C735.588311 571.635215 735.588311 571.634192 735.588311 571.635215l-84.161818-84.258009-77.757968-77.848019-40.723493-40.770566c-11.369955-11.383258-29.817096-11.383258-41.187051 0l-40.723493 40.770566 0 0L239.614309 621.191888l-0.119727 0 0 272.63947 181.883467 0 0-161.661913c0-36.45733 29.55513-66.01246 66.01246-66.01246l49.942459 0c36.45733 0 66.01246 29.55513 66.01246 66.01246l0 161.661913L785.248338 893.831358l0-272.63947-0.159636 0L735.588311 571.635215z" p-id="3536" fill="#e6e6e6"></path><path d="M956.215174 562.178843 544.074509 141.196813c-0.076748-0.078795-0.158612-0.152473-0.24457-0.221034-7.888667-6.247284-17.873066-9.762341-28.137851-10.594289-0.168846-0.053212-0.342808-0.094144-0.525979-0.105401-1.274016-0.073678-2.551102-0.094144-3.827165-0.084934-1.276063-0.00921-2.553149 0.011256-3.827165 0.084934-0.184195 0.010233-0.358157 0.051165-0.525979 0.105401-10.264784 0.830925-20.249183 4.347005-28.137851 10.594289-0.085958 0.068562-0.167822 0.14224-0.24457 0.221034L66.460668 562.178843c-4.892427 4.997827-1.351787 13.418614 5.641487 13.418614l119.918183 0c1.312902 0 3.155876-0.750083 4.096295-1.666966l314.539766-306.896692c0.202615-0.197498 0.433882-0.348947 0.680499-0.455371 0.246617 0.105401 0.478907 0.257873 0.680499 0.455371L826.559209 573.930491c0.939395 0.916882 2.78237 1.666966 4.096295 1.666966l119.918183 0C957.566962 575.597457 961.107601 567.17667 956.215174 562.178843z" p-id="3537" fill="#e6e6e6"></path></svg>